<?xml version="1.0" standalone="no"?>
<!DOCTYPE svg PUBLIC "-//W3C//DTD SVG 20010904//EN"
 "http://www.w3.org/TR/2001/REC-SVG-20010904/DTD/svg10.dtd">
<svg version="1.0" xmlns="http://www.w3.org/2000/svg"
 width="700.000000pt" height="700.000000pt" viewBox="0 0 700.000000 700.000000"
 preserveAspectRatio="xMidYMid meet">
<metadata>
Created by potrace 1.14, written by Peter Selinger 2001-2017
</metadata>
<g transform="translate(0.000000,700.000000) scale(0.100000,-0.100000)"
fill="#000000" stroke="none">
<path d="M377 6966 c-107 -41 -183 -91 -242 -161 -46 -54 -106 -165 -122 -225
-11 -44 -10 -6056 1 -6125 31 -189 165 -347 361 -425 l60 -24 2798 1 c1539 1
2927 5 3084 8 276 4 287 5 339 29 171 78 290 223 326 396 11 54 13 579 13
3015 0 1623 -3 2991 -7 3041 -14 202 -126 364 -310 449 -42 19 -100 37 -129
41 -30 3 -1411 7 -3069 10 l-3015 3 -88 -33z m4378 -2805 c-5 -1132 -9 -1486
-20 -1541 -3 -14 -8 -41 -11 -60 -18 -95 -103 -285 -176 -393 -170 -250 -463
-432 -778 -482 -19 -3 -46 -7 -60 -10 -79 -15 -275 -21 -350 -11 -19 2 -64 8
-100 11 -54 5 -111 16 -220 40 -104 23 -293 116 -400 196 -196 149 -327 376
-366 637 -3 20 -7 44 -9 52 -6 21 -18 128 -19 169 l-1 34 438 0 c240 0 439 -2
441 -4 2 -2 7 -41 10 -87 21 -251 110 -358 310 -369 169 -10 260 28 341 142
50 70 70 136 80 260 8 96 13 713 16 1795 1 437 4 797 5 801 2 3 199 5 438 5
l435 0 -4 -1185z"/>
</g>
</svg>
